<svg width="40" height="40" fill="none" xmlns="http://www.w3.org/2000/svg"><path d="M20 14a6 6 0 1 0 0 12 6 6 0 0 0 0-12Zm0-4a10 10 0 1 1 0 20 10 10 0 0 1 0-20Zm13-.5a2.5 2.5 0 1 1-5 0 2.5 2.5 0 0 1 5 0ZM20 4c-4.95 0-5.75.01-8.06.12-1.56.07-2.62.28-3.6.66a5.8 5.8 0 0 0-2.15 1.4 5.8 5.8 0 0 0-1.41 2.17c-.38.98-.59 2.03-.66 3.6C4.02 14.14 4 14.91 4 20c0 4.95.01 5.76.12 8.06.07 1.56.28 2.62.66 3.6.34.86.74 1.49 1.4 2.15a5.8 5.8 0 0 0 2.16 1.4c.99.39 2.04.6 3.6.67 2.21.1 2.98.12 8.06.12 4.95 0 5.76-.01 8.06-.12 1.56-.07 2.61-.28 3.6-.66a5.8 5.8 0 0 0 2.15-1.4 5.75 5.75 0 0 0 1.41-2.16c.38-.99.6-2.04.66-3.6.1-2.21.12-2.98.12-8.06 0-4.95-.01-5.76-.12-8.06a10.94 10.94 0 0 0-.66-3.6 5.8 5.8 0 0 0-1.4-2.15 5.8 5.8 0 0 0-2.17-1.41c-.98-.38-2.03-.6-3.6-.66C25.86 4.02 25.09 4 20 4m0-4c5.43 0 6.11.02 8.25.12 2.12.1 3.58.43 4.85.93 1.32.5 2.43 1.2 3.54 2.3a9.8 9.8 0 0 1 2.31 3.55c.5 1.27.83 2.73.93 4.86.1 2.13.12 2.8.12 8.24 0 5.43-.02 6.11-.12 8.24-.1 2.14-.44 3.58-.93 4.86a9.8 9.8 0 0 1-2.3 3.54 9.8 9.8 0 0 1-3.55 2.31c-1.27.5-2.73.83-4.85.93-2.14.1-2.82.12-8.25.12s-6.11-.02-8.25-.12c-2.12-.1-3.57-.44-4.85-.93a9.8 9.8 0 0 1-3.54-2.3 9.8 9.8 0 0 1-2.31-3.55c-.5-1.27-.83-2.73-.93-4.86C.02 26.11 0 25.44 0 20c0-5.43.02-6.11.12-8.24.1-2.14.43-3.58.93-4.86a9.8 9.8 0 0 1 2.3-3.54A9.8 9.8 0 0 1 6.9 1.05C8.17.55 9.62.22 11.75.12 13.9.02 14.57 0 20 0" fill="#414141"/></svg>