<svg xmlns="http://www.w3.org/2000/svg" width="32" height="25" fill="none"><path fill="#fff" d="M3.02 22.312C1.218 20.397.25 18.25.25 14.769.25 8.644 4.55 3.155 10.803.44l1.562 2.412c-5.836 3.157-6.977 7.254-7.432 9.837.94-.487 2.17-.657 3.376-.545 3.157.293 5.645 2.884 5.645 6.106a6.125 6.125 0 0 1-6.125 6.125 6.774 6.774 0 0 1-4.809-2.063Zm17.5 0c-1.802-1.915-2.77-4.062-2.77-7.543 0-6.125 4.3-11.614 10.552-14.329l1.563 2.412c-5.836 3.157-6.977 7.254-7.432 9.837.94-.487 2.17-.657 3.376-.545 3.157.293 5.645 2.884 5.645 6.106a6.125 6.125 0 0 1-6.125 6.125 6.774 6.774 0 0 1-4.809-2.063Z"/></svg>