<svg xmlns="http://www.w3.org/2000/svg" width="34" height="32" fill="none"><path fill="#3E66DF" d="M15.517 1.258c.435-1.34 2.331-1.34 2.767 0l2.862 8.81c.195.6.753 1.005 1.384 1.005h9.263c1.409 0 1.995 1.803.855 2.632l-7.494 5.444a1.455 1.455 0 0 0-.529 1.627l2.863 8.81c.435 1.34-1.099 2.454-2.239 1.626l-7.494-5.445c-.51-.37-1.2-.37-1.71 0l-7.494 5.445c-1.14.828-2.674-.286-2.239-1.627l2.863-8.81a1.455 1.455 0 0 0-.529-1.626l-7.494-5.444c-1.14-.829-.554-2.632.856-2.632h9.263c.63 0 1.188-.406 1.383-1.005l2.863-8.81Z"/></svg>

